<mxfile host="app.diagrams.net" modified="2024-05-09T20:01:33.111Z" agent="Mozilla/5.0 (Windows NT 10.0; Win64; x64) AppleWebKit/537.36 (KHTML, like Gecko) Chrome/121.0.0.0 Safari/537.36 OPR/107.0.0.0" etag="JuXwKvnWkUnaCG_Yvh0i" version="24.3.1" type="device">
  <diagram name="Страница — 1" id="9qlkNrr8skJGmZddoAX3">
    <mxGraphModel dx="2061" dy="1150" grid="0" gridSize="10" guides="1" tooltips="1" connect="1" arrows="1" fold="1" page="0" pageScale="1" pageWidth="827" pageHeight="1169" math="0" shadow="0">
      <root>
        <mxCell id="0" />
        <mxCell id="1" parent="0" />
        <mxCell id="KdUWBVPqrSz_nsnfu4Ra-47" style="edgeStyle=none;curved=1;rounded=0;orthogonalLoop=1;jettySize=auto;html=1;exitX=0.5;exitY=0.5;exitDx=0;exitDy=0;exitPerimeter=0;entryX=0;entryY=0.5;entryDx=0;entryDy=0;fontSize=12;startSize=8;endSize=8;endArrow=none;endFill=0;" parent="1" source="KdUWBVPqrSz_nsnfu4Ra-1" target="KdUWBVPqrSz_nsnfu4Ra-14" edge="1">
          <mxGeometry relative="1" as="geometry" />
        </mxCell>
        <mxCell id="KdUWBVPqrSz_nsnfu4Ra-49" style="edgeStyle=none;curved=1;rounded=0;orthogonalLoop=1;jettySize=auto;html=1;exitX=0.5;exitY=0.5;exitDx=0;exitDy=0;exitPerimeter=0;entryX=0;entryY=0.5;entryDx=0;entryDy=0;fontSize=12;startSize=8;endSize=8;endArrow=none;endFill=0;" parent="1" source="KdUWBVPqrSz_nsnfu4Ra-1" target="KdUWBVPqrSz_nsnfu4Ra-15" edge="1">
          <mxGeometry relative="1" as="geometry" />
        </mxCell>
        <mxCell id="KdUWBVPqrSz_nsnfu4Ra-50" style="edgeStyle=none;curved=1;rounded=0;orthogonalLoop=1;jettySize=auto;html=1;exitX=0.5;exitY=0.5;exitDx=0;exitDy=0;exitPerimeter=0;entryX=0;entryY=0.5;entryDx=0;entryDy=0;fontSize=12;startSize=8;endSize=8;endArrow=none;endFill=0;" parent="1" source="KdUWBVPqrSz_nsnfu4Ra-1" target="KdUWBVPqrSz_nsnfu4Ra-16" edge="1">
          <mxGeometry relative="1" as="geometry" />
        </mxCell>
        <mxCell id="z9t9vNIMV2q-uNRMc0uW-2" style="edgeStyle=none;curved=1;rounded=0;orthogonalLoop=1;jettySize=auto;html=1;exitX=0.5;exitY=0.5;exitDx=0;exitDy=0;exitPerimeter=0;entryX=0;entryY=0.5;entryDx=0;entryDy=0;fontSize=12;startSize=8;endSize=8;endArrow=none;endFill=0;" edge="1" parent="1" source="KdUWBVPqrSz_nsnfu4Ra-1" target="z9t9vNIMV2q-uNRMc0uW-1">
          <mxGeometry relative="1" as="geometry" />
        </mxCell>
        <mxCell id="z9t9vNIMV2q-uNRMc0uW-74" style="edgeStyle=none;curved=1;rounded=0;orthogonalLoop=1;jettySize=auto;html=1;exitX=0.5;exitY=0.5;exitDx=0;exitDy=0;exitPerimeter=0;entryX=0;entryY=0.5;entryDx=0;entryDy=0;fontSize=12;startSize=8;endSize=8;endArrow=none;endFill=0;" edge="1" parent="1" source="KdUWBVPqrSz_nsnfu4Ra-1" target="KdUWBVPqrSz_nsnfu4Ra-13">
          <mxGeometry relative="1" as="geometry" />
        </mxCell>
        <mxCell id="KdUWBVPqrSz_nsnfu4Ra-1" value="Арендатор" style="shape=umlActor;verticalLabelPosition=bottom;verticalAlign=top;html=1;" parent="1" vertex="1">
          <mxGeometry x="-115" y="123" width="36" height="72" as="geometry" />
        </mxCell>
        <mxCell id="KdUWBVPqrSz_nsnfu4Ra-46" style="edgeStyle=none;curved=1;rounded=0;orthogonalLoop=1;jettySize=auto;html=1;exitX=0.5;exitY=0.5;exitDx=0;exitDy=0;exitPerimeter=0;entryX=0;entryY=0.5;entryDx=0;entryDy=0;fontSize=12;startSize=8;endSize=8;endArrow=none;endFill=0;" parent="1" source="KdUWBVPqrSz_nsnfu4Ra-2" target="KdUWBVPqrSz_nsnfu4Ra-13" edge="1">
          <mxGeometry relative="1" as="geometry" />
        </mxCell>
        <mxCell id="KdUWBVPqrSz_nsnfu4Ra-51" style="edgeStyle=none;curved=1;rounded=0;orthogonalLoop=1;jettySize=auto;html=1;exitX=0.5;exitY=0.5;exitDx=0;exitDy=0;exitPerimeter=0;entryX=1;entryY=0.5;entryDx=0;entryDy=0;fontSize=12;startSize=8;endSize=8;endArrow=none;endFill=0;" parent="1" source="KdUWBVPqrSz_nsnfu4Ra-2" target="KdUWBVPqrSz_nsnfu4Ra-11" edge="1">
          <mxGeometry relative="1" as="geometry" />
        </mxCell>
        <mxCell id="KdUWBVPqrSz_nsnfu4Ra-52" style="edgeStyle=none;curved=1;rounded=0;orthogonalLoop=1;jettySize=auto;html=1;exitX=0.5;exitY=0.5;exitDx=0;exitDy=0;exitPerimeter=0;entryX=1;entryY=0.5;entryDx=0;entryDy=0;fontSize=12;startSize=8;endSize=8;endArrow=none;endFill=0;" parent="1" source="KdUWBVPqrSz_nsnfu4Ra-2" target="KdUWBVPqrSz_nsnfu4Ra-8" edge="1">
          <mxGeometry relative="1" as="geometry" />
        </mxCell>
        <mxCell id="z9t9vNIMV2q-uNRMc0uW-4" style="edgeStyle=none;curved=1;rounded=0;orthogonalLoop=1;jettySize=auto;html=1;exitX=0.5;exitY=0.5;exitDx=0;exitDy=0;exitPerimeter=0;entryX=0;entryY=0.5;entryDx=0;entryDy=0;fontSize=12;startSize=8;endSize=8;endArrow=none;endFill=0;" edge="1" parent="1" source="KdUWBVPqrSz_nsnfu4Ra-2" target="z9t9vNIMV2q-uNRMc0uW-1">
          <mxGeometry relative="1" as="geometry" />
        </mxCell>
        <mxCell id="z9t9vNIMV2q-uNRMc0uW-26" style="edgeStyle=none;curved=1;rounded=0;orthogonalLoop=1;jettySize=auto;html=1;exitX=0.5;exitY=0.5;exitDx=0;exitDy=0;exitPerimeter=0;fontSize=12;startSize=8;endSize=8;endArrow=none;endFill=0;" edge="1" parent="1" source="KdUWBVPqrSz_nsnfu4Ra-2" target="KVPKxW1qNKhPgR75EKj5-1">
          <mxGeometry relative="1" as="geometry" />
        </mxCell>
        <mxCell id="z9t9vNIMV2q-uNRMc0uW-27" style="edgeStyle=none;curved=1;rounded=0;orthogonalLoop=1;jettySize=auto;html=1;exitX=0.5;exitY=0.5;exitDx=0;exitDy=0;exitPerimeter=0;entryX=0.5;entryY=0;entryDx=0;entryDy=0;fontSize=12;startSize=8;endSize=8;endArrow=none;endFill=0;" edge="1" parent="1" source="KdUWBVPqrSz_nsnfu4Ra-2" target="KdUWBVPqrSz_nsnfu4Ra-32">
          <mxGeometry relative="1" as="geometry" />
        </mxCell>
        <mxCell id="z9t9vNIMV2q-uNRMc0uW-28" style="edgeStyle=none;curved=1;rounded=0;orthogonalLoop=1;jettySize=auto;html=1;exitX=0.5;exitY=0.5;exitDx=0;exitDy=0;exitPerimeter=0;entryX=0.5;entryY=0;entryDx=0;entryDy=0;fontSize=12;startSize=8;endSize=8;endArrow=none;endFill=0;" edge="1" parent="1" source="KdUWBVPqrSz_nsnfu4Ra-2" target="KdUWBVPqrSz_nsnfu4Ra-9">
          <mxGeometry relative="1" as="geometry" />
        </mxCell>
        <mxCell id="z9t9vNIMV2q-uNRMc0uW-53" style="edgeStyle=none;curved=1;rounded=0;orthogonalLoop=1;jettySize=auto;html=1;exitX=0.5;exitY=0.5;exitDx=0;exitDy=0;exitPerimeter=0;entryX=0;entryY=1;entryDx=0;entryDy=0;fontSize=12;startSize=8;endSize=8;endArrow=none;endFill=0;" edge="1" parent="1" source="KdUWBVPqrSz_nsnfu4Ra-2" target="z9t9vNIMV2q-uNRMc0uW-52">
          <mxGeometry relative="1" as="geometry" />
        </mxCell>
        <mxCell id="KdUWBVPqrSz_nsnfu4Ra-2" value="Владелец" style="shape=umlActor;verticalLabelPosition=bottom;verticalAlign=top;html=1;" parent="1" vertex="1">
          <mxGeometry x="-191" y="131" width="36" height="72" as="geometry" />
        </mxCell>
        <mxCell id="KdUWBVPqrSz_nsnfu4Ra-21" style="edgeStyle=none;curved=1;rounded=0;orthogonalLoop=1;jettySize=auto;html=1;exitX=0.5;exitY=0.5;exitDx=0;exitDy=0;exitPerimeter=0;fontSize=12;startSize=8;endSize=8;endArrow=none;endFill=0;" parent="1" source="KdUWBVPqrSz_nsnfu4Ra-3" target="KdUWBVPqrSz_nsnfu4Ra-13" edge="1">
          <mxGeometry relative="1" as="geometry" />
        </mxCell>
        <mxCell id="KdUWBVPqrSz_nsnfu4Ra-45" style="edgeStyle=none;curved=1;rounded=0;orthogonalLoop=1;jettySize=auto;html=1;exitX=0.5;exitY=0.5;exitDx=0;exitDy=0;exitPerimeter=0;entryX=0;entryY=0;entryDx=0;entryDy=0;fontSize=12;startSize=8;endSize=8;endArrow=none;endFill=0;" parent="1" source="KdUWBVPqrSz_nsnfu4Ra-3" target="KdUWBVPqrSz_nsnfu4Ra-38" edge="1">
          <mxGeometry relative="1" as="geometry" />
        </mxCell>
        <mxCell id="z9t9vNIMV2q-uNRMc0uW-55" style="edgeStyle=none;curved=1;rounded=0;orthogonalLoop=1;jettySize=auto;html=1;exitX=0.5;exitY=0.5;exitDx=0;exitDy=0;exitPerimeter=0;entryX=1;entryY=0;entryDx=0;entryDy=0;fontSize=12;startSize=8;endSize=8;endArrow=none;endFill=0;" edge="1" parent="1" source="KdUWBVPqrSz_nsnfu4Ra-3" target="z9t9vNIMV2q-uNRMc0uW-54">
          <mxGeometry relative="1" as="geometry" />
        </mxCell>
        <mxCell id="z9t9vNIMV2q-uNRMc0uW-65" style="edgeStyle=none;curved=1;rounded=0;orthogonalLoop=1;jettySize=auto;html=1;exitX=0.5;exitY=0.5;exitDx=0;exitDy=0;exitPerimeter=0;entryX=0;entryY=0.5;entryDx=0;entryDy=0;fontSize=12;startSize=8;endSize=8;endArrow=none;endFill=0;" edge="1" parent="1" source="KdUWBVPqrSz_nsnfu4Ra-3" target="z9t9vNIMV2q-uNRMc0uW-62">
          <mxGeometry relative="1" as="geometry" />
        </mxCell>
        <mxCell id="z9t9vNIMV2q-uNRMc0uW-75" style="edgeStyle=none;curved=1;rounded=0;orthogonalLoop=1;jettySize=auto;html=1;exitX=0.5;exitY=0.5;exitDx=0;exitDy=0;exitPerimeter=0;entryX=0;entryY=0.5;entryDx=0;entryDy=0;fontSize=12;startSize=8;endSize=8;endArrow=none;endFill=0;" edge="1" parent="1" source="KdUWBVPqrSz_nsnfu4Ra-3" target="z9t9vNIMV2q-uNRMc0uW-1">
          <mxGeometry relative="1" as="geometry" />
        </mxCell>
        <mxCell id="KdUWBVPqrSz_nsnfu4Ra-3" value="Администратор" style="shape=umlActor;verticalLabelPosition=bottom;verticalAlign=top;html=1;" parent="1" vertex="1">
          <mxGeometry x="-189" y="-162" width="36" height="72" as="geometry" />
        </mxCell>
        <mxCell id="KdUWBVPqrSz_nsnfu4Ra-8" value="Редактирование помещений, выставленных в аренду&amp;nbsp;" style="ellipse;whiteSpace=wrap;html=1;align=center;" parent="1" vertex="1">
          <mxGeometry x="-413" y="214" width="158" height="57" as="geometry" />
        </mxCell>
        <mxCell id="KdUWBVPqrSz_nsnfu4Ra-9" value="Удаление помещений,&amp;nbsp;&lt;br&gt;выставленных в аренду" style="ellipse;whiteSpace=wrap;html=1;align=center;" parent="1" vertex="1">
          <mxGeometry x="-322" y="290" width="145" height="57" as="geometry" />
        </mxCell>
        <mxCell id="KdUWBVPqrSz_nsnfu4Ra-11" value="Выставление помещений в аренду" style="ellipse;whiteSpace=wrap;html=1;align=center;" parent="1" vertex="1">
          <mxGeometry x="-413" y="134" width="154" height="57" as="geometry" />
        </mxCell>
        <mxCell id="KdUWBVPqrSz_nsnfu4Ra-13" value="Авторизация" style="ellipse;whiteSpace=wrap;html=1;align=center;" parent="1" vertex="1">
          <mxGeometry x="-108" y="-151" width="148" height="57" as="geometry" />
        </mxCell>
        <mxCell id="KdUWBVPqrSz_nsnfu4Ra-14" value="Просмотр выставленных в аренду помещений" style="ellipse;whiteSpace=wrap;html=1;align=center;" parent="1" vertex="1">
          <mxGeometry x="3" y="151" width="154" height="57" as="geometry" />
        </mxCell>
        <mxCell id="KdUWBVPqrSz_nsnfu4Ra-15" value="Подача заявки на аренду&lt;br&gt;помещения" style="ellipse;whiteSpace=wrap;html=1;align=center;" parent="1" vertex="1">
          <mxGeometry x="2" y="220" width="165" height="57" as="geometry" />
        </mxCell>
        <mxCell id="KdUWBVPqrSz_nsnfu4Ra-16" value="Просмотр своих аренд" style="ellipse;whiteSpace=wrap;html=1;align=center;" parent="1" vertex="1">
          <mxGeometry x="3" y="293" width="164" height="57" as="geometry" />
        </mxCell>
        <mxCell id="KdUWBVPqrSz_nsnfu4Ra-32" value="Просмотр своих помещений, &lt;br&gt;сданных&amp;nbsp;в аренду" style="ellipse;whiteSpace=wrap;html=1;align=center;" parent="1" vertex="1">
          <mxGeometry x="-165" y="293" width="152" height="57" as="geometry" />
        </mxCell>
        <mxCell id="KdUWBVPqrSz_nsnfu4Ra-38" value="Редактирование пользователей" style="ellipse;whiteSpace=wrap;html=1;align=center;" parent="1" vertex="1">
          <mxGeometry x="-153" y="-268" width="147.5" height="57" as="geometry" />
        </mxCell>
        <mxCell id="KdUWBVPqrSz_nsnfu4Ra-44" value="" style="edgeStyle=none;curved=1;rounded=0;orthogonalLoop=1;jettySize=auto;html=1;fontSize=12;startSize=8;endSize=8;endArrow=none;endFill=0;dashed=1;startArrow=classic;startFill=1;exitX=0.577;exitY=1.058;exitDx=0;exitDy=0;exitPerimeter=0;" parent="1" source="z9t9vNIMV2q-uNRMc0uW-56" target="KdUWBVPqrSz_nsnfu4Ra-38" edge="1">
          <mxGeometry relative="1" as="geometry">
            <mxPoint x="404.5" y="362" as="sourcePoint" />
          </mxGeometry>
        </mxCell>
        <mxCell id="KVPKxW1qNKhPgR75EKj5-1" value="Принятие заявки на аренду помещения" style="ellipse;whiteSpace=wrap;html=1;align=center;" parent="1" vertex="1">
          <mxGeometry x="-443" y="-28" width="155" height="57" as="geometry" />
        </mxCell>
        <mxCell id="z9t9vNIMV2q-uNRMc0uW-1" value="Регистрация" style="ellipse;whiteSpace=wrap;html=1;align=center;" vertex="1" parent="1">
          <mxGeometry x="-93" y="-52" width="158" height="57" as="geometry" />
        </mxCell>
        <mxCell id="z9t9vNIMV2q-uNRMc0uW-69" style="edgeStyle=none;curved=1;rounded=0;orthogonalLoop=1;jettySize=auto;html=1;exitX=0.5;exitY=1;exitDx=0;exitDy=0;fontSize=12;startSize=8;endSize=8;startArrow=none;startFill=0;endArrow=classic;endFill=1;dashed=1;" edge="1" parent="1" source="z9t9vNIMV2q-uNRMc0uW-5" target="KdUWBVPqrSz_nsnfu4Ra-14">
          <mxGeometry relative="1" as="geometry" />
        </mxCell>
        <mxCell id="z9t9vNIMV2q-uNRMc0uW-70" value="Extend" style="edgeLabel;html=1;align=center;verticalAlign=middle;resizable=0;points=[];fontSize=12;" vertex="1" connectable="0" parent="z9t9vNIMV2q-uNRMc0uW-69">
          <mxGeometry x="-0.363" relative="1" as="geometry">
            <mxPoint x="28" y="34" as="offset" />
          </mxGeometry>
        </mxCell>
        <mxCell id="z9t9vNIMV2q-uNRMc0uW-5" value="Фильтрация помещений" style="ellipse;whiteSpace=wrap;html=1;align=center;" vertex="1" parent="1">
          <mxGeometry x="0.5" y="19" width="156.5" height="57" as="geometry" />
        </mxCell>
        <mxCell id="z9t9vNIMV2q-uNRMc0uW-31" style="edgeStyle=none;curved=1;rounded=0;orthogonalLoop=1;jettySize=auto;html=1;exitX=1;exitY=0.5;exitDx=0;exitDy=0;entryX=0;entryY=0;entryDx=0;entryDy=0;fontSize=12;startSize=8;endSize=8;endArrow=none;endFill=0;startArrow=classic;startFill=1;dashed=1;" edge="1" parent="1" source="z9t9vNIMV2q-uNRMc0uW-9" target="KdUWBVPqrSz_nsnfu4Ra-11">
          <mxGeometry relative="1" as="geometry" />
        </mxCell>
        <mxCell id="z9t9vNIMV2q-uNRMc0uW-42" style="edgeStyle=none;curved=1;rounded=0;orthogonalLoop=1;jettySize=auto;html=1;exitX=0.5;exitY=1;exitDx=0;exitDy=0;entryX=0;entryY=1;entryDx=0;entryDy=0;fontSize=12;startSize=8;endSize=8;endArrow=none;endFill=0;startArrow=classic;startFill=1;dashed=1;" edge="1" parent="1" source="z9t9vNIMV2q-uNRMc0uW-9" target="KdUWBVPqrSz_nsnfu4Ra-8">
          <mxGeometry relative="1" as="geometry" />
        </mxCell>
        <mxCell id="z9t9vNIMV2q-uNRMc0uW-9" value="Установка названия&lt;div&gt;&amp;nbsp;помещения&lt;/div&gt;" style="ellipse;whiteSpace=wrap;html=1;align=center;" vertex="1" parent="1">
          <mxGeometry x="-669" y="140" width="153" height="57" as="geometry" />
        </mxCell>
        <mxCell id="z9t9vNIMV2q-uNRMc0uW-35" style="edgeStyle=none;curved=1;rounded=0;orthogonalLoop=1;jettySize=auto;html=1;exitX=1;exitY=0.5;exitDx=0;exitDy=0;entryX=0.5;entryY=1;entryDx=0;entryDy=0;fontSize=12;startSize=8;endSize=8;startArrow=classic;startFill=1;endArrow=none;endFill=0;dashed=1;" edge="1" parent="1" source="z9t9vNIMV2q-uNRMc0uW-10" target="KdUWBVPqrSz_nsnfu4Ra-8">
          <mxGeometry relative="1" as="geometry" />
        </mxCell>
        <mxCell id="z9t9vNIMV2q-uNRMc0uW-37" style="edgeStyle=none;curved=1;rounded=0;orthogonalLoop=1;jettySize=auto;html=1;exitX=1;exitY=0;exitDx=0;exitDy=0;entryX=0;entryY=0.5;entryDx=0;entryDy=0;fontSize=12;startSize=8;endSize=8;startArrow=classic;startFill=1;endArrow=none;endFill=0;dashed=1;" edge="1" parent="1" source="z9t9vNIMV2q-uNRMc0uW-10" target="KdUWBVPqrSz_nsnfu4Ra-11">
          <mxGeometry relative="1" as="geometry" />
        </mxCell>
        <mxCell id="z9t9vNIMV2q-uNRMc0uW-10" value="Выбор типа помещени" style="ellipse;whiteSpace=wrap;html=1;align=center;" vertex="1" parent="1">
          <mxGeometry x="-665" y="243" width="159" height="57" as="geometry" />
        </mxCell>
        <mxCell id="z9t9vNIMV2q-uNRMc0uW-30" style="edgeStyle=none;curved=1;rounded=0;orthogonalLoop=1;jettySize=auto;html=1;exitX=1;exitY=1;exitDx=0;exitDy=0;entryX=0.5;entryY=0;entryDx=0;entryDy=0;fontSize=12;startSize=8;endSize=8;startArrow=classic;startFill=1;endArrow=none;endFill=0;dashed=1;" edge="1" parent="1" source="z9t9vNIMV2q-uNRMc0uW-11" target="KdUWBVPqrSz_nsnfu4Ra-11">
          <mxGeometry relative="1" as="geometry" />
        </mxCell>
        <mxCell id="z9t9vNIMV2q-uNRMc0uW-45" value="Include" style="edgeLabel;html=1;align=center;verticalAlign=middle;resizable=0;points=[];fontSize=12;" vertex="1" connectable="0" parent="z9t9vNIMV2q-uNRMc0uW-30">
          <mxGeometry x="-0.2532" y="2" relative="1" as="geometry">
            <mxPoint x="17" y="-11" as="offset" />
          </mxGeometry>
        </mxCell>
        <mxCell id="z9t9vNIMV2q-uNRMc0uW-11" value="Установка фотографии помещения" style="ellipse;whiteSpace=wrap;html=1;align=center;" vertex="1" parent="1">
          <mxGeometry x="-503" y="34" width="162" height="57" as="geometry" />
        </mxCell>
        <mxCell id="z9t9vNIMV2q-uNRMc0uW-34" style="edgeStyle=none;curved=1;rounded=0;orthogonalLoop=1;jettySize=auto;html=1;exitX=1;exitY=0.5;exitDx=0;exitDy=0;entryX=1;entryY=1;entryDx=0;entryDy=0;fontSize=12;startSize=8;endSize=8;startArrow=classic;startFill=1;endArrow=none;endFill=0;dashed=1;" edge="1" parent="1" source="z9t9vNIMV2q-uNRMc0uW-13" target="KdUWBVPqrSz_nsnfu4Ra-8">
          <mxGeometry relative="1" as="geometry" />
        </mxCell>
        <mxCell id="z9t9vNIMV2q-uNRMc0uW-38" style="edgeStyle=none;curved=1;rounded=0;orthogonalLoop=1;jettySize=auto;html=1;exitX=0.5;exitY=0;exitDx=0;exitDy=0;entryX=0;entryY=1;entryDx=0;entryDy=0;fontSize=12;startSize=8;endSize=8;startArrow=classicThin;startFill=1;endArrow=none;endFill=0;dashed=1;" edge="1" parent="1" source="z9t9vNIMV2q-uNRMc0uW-13" target="KdUWBVPqrSz_nsnfu4Ra-11">
          <mxGeometry relative="1" as="geometry" />
        </mxCell>
        <mxCell id="z9t9vNIMV2q-uNRMc0uW-13" value="Установка описания характеристик" style="ellipse;whiteSpace=wrap;html=1;align=center;" vertex="1" parent="1">
          <mxGeometry x="-546" y="317" width="155" height="57" as="geometry" />
        </mxCell>
        <mxCell id="z9t9vNIMV2q-uNRMc0uW-41" style="edgeStyle=none;curved=1;rounded=0;orthogonalLoop=1;jettySize=auto;html=1;exitX=0;exitY=1;exitDx=0;exitDy=0;fontSize=12;startSize=8;endSize=8;" edge="1" parent="1" source="z9t9vNIMV2q-uNRMc0uW-11" target="z9t9vNIMV2q-uNRMc0uW-11">
          <mxGeometry relative="1" as="geometry" />
        </mxCell>
        <mxCell id="z9t9vNIMV2q-uNRMc0uW-43" style="edgeStyle=none;curved=1;rounded=0;orthogonalLoop=1;jettySize=auto;html=1;exitX=0;exitY=1;exitDx=0;exitDy=0;entryX=0.062;entryY=0.313;entryDx=0;entryDy=0;entryPerimeter=0;fontSize=12;startSize=8;endSize=8;startArrow=classic;startFill=1;endArrow=none;endFill=0;dashed=1;" edge="1" parent="1" source="z9t9vNIMV2q-uNRMc0uW-11" target="KdUWBVPqrSz_nsnfu4Ra-8">
          <mxGeometry relative="1" as="geometry" />
        </mxCell>
        <mxCell id="z9t9vNIMV2q-uNRMc0uW-46" value="Include" style="edgeLabel;html=1;align=center;verticalAlign=middle;resizable=0;points=[];fontSize=12;" vertex="1" connectable="0" parent="1">
          <mxGeometry x="-442.9994190320873" y="99.00255000419713" as="geometry" />
        </mxCell>
        <mxCell id="z9t9vNIMV2q-uNRMc0uW-47" value="Include" style="edgeLabel;html=1;align=center;verticalAlign=middle;resizable=0;points=[];fontSize=12;" vertex="1" connectable="0" parent="1">
          <mxGeometry x="-549.9994190320873" y="235.00255000419713" as="geometry">
            <mxPoint x="5" y="1" as="offset" />
          </mxGeometry>
        </mxCell>
        <mxCell id="z9t9vNIMV2q-uNRMc0uW-48" value="Include" style="edgeLabel;html=1;align=center;verticalAlign=middle;resizable=0;points=[];fontSize=12;" vertex="1" connectable="0" parent="1">
          <mxGeometry x="-533.9994190320873" y="269.00255000419713" as="geometry" />
        </mxCell>
        <mxCell id="z9t9vNIMV2q-uNRMc0uW-49" value="Include" style="edgeLabel;html=1;align=center;verticalAlign=middle;resizable=0;points=[];fontSize=12;" vertex="1" connectable="0" parent="1">
          <mxGeometry x="-490.9994190320873" y="303.00255000419713" as="geometry">
            <mxPoint x="5" y="-1" as="offset" />
          </mxGeometry>
        </mxCell>
        <mxCell id="z9t9vNIMV2q-uNRMc0uW-51" value="Include" style="edgeLabel;html=1;align=center;verticalAlign=middle;resizable=0;points=[];fontSize=12;" vertex="1" connectable="0" parent="1">
          <mxGeometry x="-369.9994190320873" y="307.00255000419713" as="geometry">
            <mxPoint x="22" y="33" as="offset" />
          </mxGeometry>
        </mxCell>
        <mxCell id="z9t9vNIMV2q-uNRMc0uW-52" value="Отклонения заявки на аренду" style="ellipse;whiteSpace=wrap;html=1;align=center;" vertex="1" parent="1">
          <mxGeometry x="-288" y="-48" width="147" height="57" as="geometry" />
        </mxCell>
        <mxCell id="z9t9vNIMV2q-uNRMc0uW-60" style="edgeStyle=none;curved=1;rounded=0;orthogonalLoop=1;jettySize=auto;html=1;exitX=0.5;exitY=1;exitDx=0;exitDy=0;fontSize=12;startSize=8;endSize=8;dashed=1;" edge="1" parent="1" source="z9t9vNIMV2q-uNRMc0uW-54" target="z9t9vNIMV2q-uNRMc0uW-56">
          <mxGeometry relative="1" as="geometry" />
        </mxCell>
        <mxCell id="z9t9vNIMV2q-uNRMc0uW-54" value="Добавление пользователей" style="ellipse;whiteSpace=wrap;html=1;align=center;" vertex="1" parent="1">
          <mxGeometry x="-340" y="-273" width="149" height="57" as="geometry" />
        </mxCell>
        <mxCell id="z9t9vNIMV2q-uNRMc0uW-56" value="Заполнение формы данных пользователя" style="ellipse;whiteSpace=wrap;html=1;align=center;" vertex="1" parent="1">
          <mxGeometry x="-244" y="-371" width="154" height="57" as="geometry" />
        </mxCell>
        <mxCell id="z9t9vNIMV2q-uNRMc0uW-58" value="&lt;span style=&quot;color: rgb(0, 0, 0); font-family: Helvetica; font-size: 12px; font-style: normal; font-variant-ligatures: normal; font-variant-caps: normal; font-weight: 400; letter-spacing: normal; orphans: 2; text-align: center; text-indent: 0px; text-transform: none; widows: 2; word-spacing: 0px; -webkit-text-stroke-width: 0px; white-space: nowrap; background-color: rgb(255, 255, 255); text-decoration-thickness: initial; text-decoration-style: initial; text-decoration-color: initial; display: inline !important; float: none;&quot;&gt;Include&lt;/span&gt;" style="text;whiteSpace=wrap;html=1;" vertex="1" parent="1">
          <mxGeometry x="-137.00002441406252" y="-317.99998779296874" width="67" height="36" as="geometry" />
        </mxCell>
        <mxCell id="z9t9vNIMV2q-uNRMc0uW-59" value="&lt;span style=&quot;color: rgb(0, 0, 0); font-family: Helvetica; font-size: 12px; font-style: normal; font-variant-ligatures: normal; font-variant-caps: normal; font-weight: 400; letter-spacing: normal; orphans: 2; text-align: center; text-indent: 0px; text-transform: none; widows: 2; word-spacing: 0px; -webkit-text-stroke-width: 0px; white-space: nowrap; background-color: rgb(255, 255, 255); text-decoration-thickness: initial; text-decoration-style: initial; text-decoration-color: initial; display: inline !important; float: none;&quot;&gt;Include&lt;/span&gt;" style="text;whiteSpace=wrap;html=1;" vertex="1" parent="1">
          <mxGeometry x="-244.00002441406252" y="-317.99998779296874" width="67" height="36" as="geometry" />
        </mxCell>
        <mxCell id="z9t9vNIMV2q-uNRMc0uW-62" value="Удаление пользователей" style="ellipse;whiteSpace=wrap;html=1;align=center;" vertex="1" parent="1">
          <mxGeometry x="-417" y="-154.5" width="149" height="57" as="geometry" />
        </mxCell>
        <mxCell id="z9t9vNIMV2q-uNRMc0uW-71" value="Include" style="edgeLabel;html=1;align=center;verticalAlign=middle;resizable=0;points=[];fontSize=12;" vertex="1" connectable="0" parent="1">
          <mxGeometry x="-496.9994190320873" y="146.00255000419713" as="geometry" />
        </mxCell>
        <mxCell id="z9t9vNIMV2q-uNRMc0uW-72" value="Include" style="edgeLabel;html=1;align=center;verticalAlign=middle;resizable=0;points=[];fontSize=12;" vertex="1" connectable="0" parent="1">
          <mxGeometry x="-490.9994190320873" y="256.50255000419713" as="geometry">
            <mxPoint x="5" y="1" as="offset" />
          </mxGeometry>
        </mxCell>
        <mxCell id="z9t9vNIMV2q-uNRMc0uW-76" style="edgeStyle=none;curved=1;rounded=0;orthogonalLoop=1;jettySize=auto;html=1;exitX=0.5;exitY=1;exitDx=0;exitDy=0;fontSize=12;startSize=8;endSize=8;" edge="1" parent="1" source="z9t9vNIMV2q-uNRMc0uW-5" target="z9t9vNIMV2q-uNRMc0uW-5">
          <mxGeometry relative="1" as="geometry" />
        </mxCell>
      </root>
    </mxGraphModel>
  </diagram>
</mxfile>
